<?xml version="1.0" encoding="UTF-8" standalone="no"?>
<svg
   xmlns:dc="http://purl.org/dc/elements/1.1/"
   xmlns:cc="http://creativecommons.org/ns#"
   xmlns:rdf="http://www.w3.org/1999/02/22-rdf-syntax-ns#"
   xmlns:svg="http://www.w3.org/2000/svg"
   xmlns="http://www.w3.org/2000/svg"
   xmlns:sodipodi="http://sodipodi.sourceforge.net/DTD/sodipodi-0.dtd"
   xmlns:inkscape="http://www.inkscape.org/namespaces/inkscape"
   style="isolation:isolate"
   viewBox="0 0 83 83"
   width="83"
   height="83"
   version="1.1"
   id="svg852"
   sodipodi:docname="gtlogo-white.svg"
   inkscape:version="1.0.1 (c497b03c, 2020-09-10)">
  <defs
     id="defs836">
    <clipPath
       id="_clipPath_0XRCUSo4naqYaPv3okJywCUSwIIY8Uh7">
      <rect
         width="83"
         height="83"
         id="rect833" />
    </clipPath>
  </defs>
  <path
     d="m 43.434,20.951 h 22.898 c 1.479,0 2.978,0 4.468,0 0.369,0.024 0.722,-0.16 0.913,-0.477 0.825,-1.28 1.669,-2.551 2.513,-3.822 l 0.148,-0.12 c 0.338,0.457 0.656,0.904 0.993,1.351 0.191,0.223 0.191,0.551 0,0.774 -1.784,2.782 -3.836,5.382 -6.126,7.765 l -0.447,0.159 H 57.316 c -2.056,0 -4.101,0 -6.246,0 l 0.228,0.348 c 1.559,1.469 3.128,2.978 4.717,4.398 0.227,0.164 0.504,0.245 0.784,0.229 2.135,0 4.27,0 6.405,0 0.218,-0.007 0.434,0.044 0.625,0.149 l -3.624,3.237 7.06,6.275 c 4.793,-4.029 9.219,-8.474 13.226,-13.286 3.326,9.771 2.941,20.423 -1.082,29.928 C 79.051,57.362 78.753,56.965 78.475,56.558 76.218,53.384 73.711,50.396 70.979,47.621 66.54,43.084 61.724,38.943 56.909,34.743 53.135,31.558 49.588,28.115 46.294,24.436 45.341,23.334 44.447,22.232 43.434,20.951 Z"
     fill="#1783c3"
     id="path838"
     style="fill:#ffffff;fill-opacity:1" />
  <path
     d="m 39.334,5.352 c 0.327,1.728 0.645,3.326 0.992,4.965 H 68.03 c 0.372,-0.029 0.737,0.114 0.992,0.387 1.612,1.641 3.099,3.4 4.449,5.263 H 40.873 C 40.61,16.017 40.349,15.87 40.257,15.619 39.209,13.506 38.438,11.267 37.963,8.956 37.364,6.26 37.17,3.489 37.387,0.735 c 0,-0.358 0.129,-0.526 0.527,-0.556 2.645,-0.237 5.308,-0.187 7.943,0.149 1.907,0.268 3.803,0.576 5.68,0.993 1.441,0.328 2.855,0.766 4.23,1.31 1.727,0.685 3.396,1.51 5.094,2.284 0.209,0.094 0.396,0.233 0.546,0.407 z"
     fill="#1783c3"
     id="path840"
     style="fill:#ffffff;fill-opacity:1" />
  <path
     d="m 38.698,82.881 c 0.109,-0.814 0.179,-1.609 0.338,-2.373 0.417,-1.986 0.794,-3.903 1.35,-5.809 0.457,-1.579 1.132,-3.088 1.738,-4.617 L 42.6,69.764 h 28.994 c -0.437,0.467 -0.754,0.874 -1.132,1.202 -1.638,1.4 -3.296,2.8 -4.964,4.16 -0.268,0.195 -0.593,0.297 -0.924,0.288 q -10.843,0 -21.686,0 c -0.437,0 -0.705,0.05 -0.814,0.546 -0.328,1.44 -0.705,2.87 -1.072,4.389 h 14.497 c -2.304,1.559 -12.641,3.098 -16.801,2.532 z"
     fill="#1783c3"
     id="path842"
     style="fill:#ffffff;fill-opacity:1" />
  <path
     d="M 74.126,66.825 C 72.719,64.25 71.102,61.796 69.291,59.487 69.126,59.254 68.85,59.125 68.566,59.15 H 51.914 c 0.101,-0.162 0.21,-0.318 0.328,-0.467 1.251,-1.36 2.532,-2.691 3.753,-4.081 0.263,-0.308 0.659,-0.471 1.063,-0.437 1.28,0 2.551,0 3.832,0 h 1.758 1.787 C 64.217,53.857 62.449,51.971 62.35,51.851 58.299,48.197 54.257,44.524 50.176,40.929 46.509,37.753 43.025,34.371 39.741,30.801 37.562,28.394 35.614,25.787 33.922,23.016 32.058,19.972 30.634,16.679 29.692,13.236 29.04,10.804 28.635,8.312 28.481,5.799 28.411,4.627 28.391,3.446 28.342,2.264 15.608,6.612 5.777,16.87 1.973,29.777 -1.831,42.684 0.867,56.634 9.208,67.192 c 0.706,0.957 1.483,1.86 2.323,2.701 4.989,5.312 11.286,9.219 18.26,11.33 0.229,-1.311 0.398,-2.562 0.666,-3.803 0.358,-1.902 0.812,-3.784 1.36,-5.64 0.745,-2.284 1.628,-4.518 2.592,-6.722 1.591,-3.531 3.591,-6.864 5.957,-9.93 2.305,-3.039 4.82,-5.912 7.527,-8.599 0.883,-0.883 1.797,-1.757 2.72,-2.651 2.274,1.986 4.488,3.972 6.742,5.958 0.437,0.387 0.13,0.526 -0.089,0.735 -3.672,3.355 -6.999,7.071 -9.929,11.091 -0.695,0.993 -1.341,1.986 -2.086,3.098 h 0.765 q 11.915,0 23.93,0 c 0.429,-0.032 0.83,0.216 0.993,0.615 0.615,1.122 1.271,2.234 1.986,3.416 l 1.36,-1.628 z M 38.519,36.342 H 32.433 V 55.585 H 27.885 V 36.342 h -4.379 c 0.55,0.997 0.923,2.082 1.102,3.207 h -4.587 c -0.287,-2.06 -2.115,-3.55 -4.19,-3.416 -1.105,-0.032 -2.169,0.421 -2.91,1.241 -0.883,0.993 -1.112,2.056 -1.112,6.544 0,4.488 0.229,5.6 1.112,6.573 0.744,0.814 1.808,1.26 2.91,1.221 1.219,0.044 2.399,-0.432 3.247,-1.31 0.726,-0.868 1.099,-1.978 1.042,-3.108 V 46.4 h -4.289 v -3.773 h 8.807 v 3.436 c 0,3.366 -0.586,5.401 -2.224,7.099 -1.717,1.781 -4.112,2.745 -6.583,2.651 -2.354,0.05 -4.625,-0.873 -6.276,-2.552 -2.363,-2.353 -2.293,-5.272 -2.293,-9.294 0,-4.021 -0.07,-6.95 2.293,-9.293 1.645,-1.689 3.919,-2.614 6.276,-2.552 2.177,-0.078 4.303,0.667 5.957,2.085 V 32.32 h 15.113 l 1.618,1.827 z"
     fill="#1783c3"
     id="path844"
     style="fill:#ffffff;fill-opacity:1" />
  <rect
     x="20.627001"
     y="31.566"
     width="1.182"
     height="5.4809999"
     fill="#1783c3"
     id="rect846"
     style="fill:#ffffff;fill-opacity:1" />
  <rect
     x="20.627001"
     y="36.362"
     width="7.2680001"
     height="1.182"
     fill="#1783c3"
     id="rect848"
     style="fill:#ffffff;fill-opacity:1" />
</svg>
