<?xml version="1.0" standalone="no"?><!-- Generator: Gravit.io --><svg xmlns="http://www.w3.org/2000/svg" xmlns:xlink="http://www.w3.org/1999/xlink" style="isolation:isolate" viewBox="0 0 83 83" width="83" height="83"><defs><clipPath id="_clipPath_0XRCUSo4naqYaPv3okJywCUSwIIY8Uh7"><rect width="83" height="83"/></clipPath></defs><g clip-path="url(#_clipPath_0XRCUSo4naqYaPv3okJywCUSwIIY8Uh7)"><path d=" M 43.434 20.951 L 66.332 20.951 C 67.811 20.951 69.31 20.951 70.8 20.951 C 71.169 20.975 71.522 20.791 71.713 20.474 C 72.538 19.194 73.382 17.923 74.226 16.652 L 74.374 16.532 C 74.712 16.989 75.03 17.436 75.367 17.883 C 75.558 18.106 75.558 18.434 75.367 18.657 C 73.583 21.439 71.531 24.039 69.241 26.422 L 68.794 26.581 L 57.316 26.581 C 55.26 26.581 53.215 26.581 51.07 26.581 L 51.298 26.929 C 52.857 28.398 54.426 29.907 56.015 31.327 C 56.242 31.491 56.519 31.572 56.799 31.556 C 58.934 31.556 61.069 31.556 63.204 31.556 C 63.422 31.549 63.638 31.6 63.829 31.705 L 60.205 34.942 L 67.265 41.217 C 72.058 37.188 76.484 32.743 80.491 27.931 C 83.817 37.702 83.432 48.354 79.409 57.859 C 79.051 57.362 78.753 56.965 78.475 56.558 C 76.218 53.384 73.711 50.396 70.979 47.621 C 66.54 43.084 61.724 38.943 56.909 34.743 C 53.135 31.558 49.588 28.115 46.294 24.436 C 45.341 23.334 44.447 22.232 43.434 20.951 Z " fill="rgb(23,131,195)"/><path d=" M 39.334 5.352 C 39.661 7.08 39.979 8.678 40.326 10.317 L 68.03 10.317 C 68.402 10.288 68.767 10.431 69.022 10.704 C 70.634 12.345 72.121 14.104 73.471 15.967 L 40.873 15.967 C 40.61 16.017 40.349 15.87 40.257 15.619 C 39.209 13.506 38.438 11.267 37.963 8.956 C 37.364 6.26 37.17 3.489 37.387 0.735 C 37.387 0.377 37.516 0.209 37.914 0.179 C 40.559 -0.058 43.222 -0.008 45.857 0.328 C 47.764 0.596 49.66 0.904 51.537 1.321 C 52.978 1.649 54.392 2.087 55.767 2.631 C 57.494 3.316 59.163 4.141 60.861 4.915 C 61.07 5.009 61.257 5.148 61.407 5.322 L 39.334 5.352 Z " fill="rgb(23,131,195)"/><path d=" M 38.698 82.881 C 38.807 82.067 38.877 81.272 39.036 80.508 C 39.453 78.522 39.83 76.605 40.386 74.699 C 40.843 73.12 41.518 71.611 42.124 70.082 L 42.6 69.764 L 71.594 69.764 C 71.157 70.231 70.84 70.638 70.462 70.966 C 68.824 72.366 67.166 73.766 65.498 75.126 C 65.23 75.321 64.905 75.423 64.574 75.414 Q 53.731 75.414 42.888 75.414 C 42.451 75.414 42.183 75.464 42.074 75.96 C 41.746 77.4 41.369 78.83 41.002 80.349 L 55.499 80.349 C 53.195 81.908 42.858 83.447 38.698 82.881 Z " fill="rgb(23,131,195)"/><path d=" M 74.126 66.825 C 72.719 64.25 71.102 61.796 69.291 59.487 C 69.126 59.254 68.85 59.125 68.566 59.15 L 51.914 59.15 C 52.015 58.988 52.124 58.832 52.242 58.683 C 53.493 57.323 54.774 55.992 55.995 54.602 C 56.258 54.294 56.654 54.131 57.058 54.165 C 58.338 54.165 59.609 54.165 60.89 54.165 L 62.648 54.165 L 64.435 54.165 C 64.217 53.857 62.449 51.971 62.35 51.851 C 58.299 48.197 54.257 44.524 50.176 40.929 C 46.509 37.753 43.025 34.371 39.741 30.801 C 37.562 28.394 35.614 25.787 33.922 23.016 C 32.058 19.972 30.634 16.679 29.692 13.236 C 29.04 10.804 28.635 8.312 28.481 5.799 C 28.411 4.627 28.391 3.446 28.342 2.264 C 15.608 6.612 5.777 16.87 1.973 29.777 C -1.831 42.684 0.867 56.634 9.208 67.192 C 9.914 68.149 10.691 69.052 11.531 69.893 C 16.52 75.205 22.817 79.112 29.791 81.223 C 30.02 79.912 30.189 78.661 30.457 77.42 C 30.815 75.518 31.269 73.636 31.817 71.78 C 32.562 69.496 33.445 67.262 34.409 65.058 C 36 61.527 38 58.194 40.366 55.128 C 42.671 52.089 45.186 49.216 47.893 46.529 C 48.776 45.646 49.69 44.772 50.613 43.878 C 52.887 45.864 55.101 47.85 57.355 49.836 C 57.792 50.223 57.485 50.362 57.266 50.571 C 53.594 53.926 50.267 57.642 47.337 61.662 C 46.642 62.655 45.996 63.648 45.251 64.76 L 46.016 64.76 Q 57.931 64.76 69.946 64.76 C 70.375 64.728 70.776 64.976 70.939 65.375 C 71.554 66.497 72.21 67.609 72.925 68.791 L 74.285 67.163 L 74.126 66.825 Z  M 38.519 36.342 L 32.433 36.342 L 32.433 55.585 L 27.885 55.585 L 27.885 36.342 L 23.506 36.342 C 24.056 37.339 24.429 38.424 24.608 39.549 L 20.021 39.549 C 19.734 37.489 17.906 35.999 15.831 36.133 C 14.726 36.101 13.662 36.554 12.921 37.374 C 12.038 38.367 11.809 39.43 11.809 43.918 C 11.809 48.406 12.038 49.518 12.921 50.491 C 13.665 51.305 14.729 51.751 15.831 51.712 C 17.05 51.756 18.23 51.28 19.078 50.402 C 19.804 49.534 20.177 48.424 20.12 47.294 L 20.12 46.4 L 15.831 46.4 L 15.831 42.627 L 24.638 42.627 L 24.638 46.063 C 24.638 49.429 24.052 51.464 22.414 53.162 C 20.697 54.943 18.302 55.907 15.831 55.813 C 13.477 55.863 11.206 54.94 9.555 53.261 C 7.192 50.908 7.262 47.989 7.262 43.967 C 7.262 39.946 7.192 37.017 9.555 34.674 C 11.2 32.985 13.474 32.06 15.831 32.122 C 18.008 32.044 20.134 32.789 21.788 34.207 L 21.788 32.32 L 36.901 32.32 L 38.519 34.147 L 38.519 36.342 Z " fill="rgb(23,131,195)"/><rect x="20.627" y="31.566" width="1.182" height="5.481" transform="matrix(1,0,0,1,0,0)" fill="rgb(23,131,195)"/><rect x="20.627" y="36.362" width="7.268" height="1.182" transform="matrix(1,0,0,1,0,0)" fill="rgb(23,131,195)"/></g></svg>